# xmcd
#
# Track frame offsets: 
#        150
#        21140
#        43275
#        63008
#        81148
#        100973
#        126838
#        139128
#        158290
#        179648
#
# Disc length: 2698 seconds
#
# Revision: 1
# Processed by: cddbd v1.5.2PL0 Copyright (c) Steve Scherf et al.
# Submitted via: ExactAudioCopy v1.0b3
#
DISCID=7f0a880a
DTITLE=八神純子 - 夢みる頃を過ぎても N24C-39
DYEAR=1900
DGENRE=Jpop
TTITLE0=夢みる頃を過ぎても
TTITLE1=シークレット･ラブ
TTITLE2=白い花束
TTITLE3=金曜日の夜
TTITLE4=一年前の恋人
TTITLE5=ナイス･メモリーズ
TTITLE6=B･G･M
TTITLE7=I'm A Woman
TTITLE8=FLY AWAY
TTITLE9=二人だけ
EXTD=
EXTT0=
EXTT1=
EXTT2=
EXTT3=
EXTT4=
EXTT5=
EXTT6=
EXTT7=
EXTT8=
EXTT9=
PLAYORDER=
